<svg width="248" height="54" viewBox="0 0 248 54" fill="none" xmlns="http://www.w3.org/2000/svg">
<path d="M14.4062 12.0625H0.71875V8.5H5.40625V5.09375H9.84375V8.5H14.4062V12.0625ZM7.65625 13.1562C8.875 13.1562 9.96354 13.4479 10.9219 14.0312C11.8802 14.6146 12.625 15.4323 13.1562 16.4844C13.6979 17.526 13.9688 18.7083 13.9688 20.0312C13.9688 21.3646 13.6979 22.5625 13.1562 23.625C12.625 24.6771 11.8802 25.5 10.9219 26.0938C9.96354 26.6771 8.875 26.9688 7.65625 26.9688C6.4375 26.9688 5.34375 26.6719 4.375 26.0781C3.40625 25.4844 2.64583 24.6615 2.09375 23.6094C1.55208 22.5573 1.28125 21.3646 1.28125 20.0312C1.28125 18.7083 1.55208 17.526 2.09375 16.4844C2.64583 15.4323 3.40625 14.6146 4.375 14.0312C5.34375 13.4479 6.4375 13.1562 7.65625 13.1562ZM7.65625 16.875C6.91667 16.8542 6.32292 17.125 5.875 17.6875C5.4375 18.25 5.21875 19.0312 5.21875 20.0312C5.21875 21.0417 5.4375 21.8177 5.875 22.3594C6.3125 22.8906 6.90625 23.1562 7.65625 23.1562C8.36458 23.1562 8.9375 22.8854 9.375 22.3438C9.8125 21.8021 10.0312 21.0312 10.0312 20.0312C10.0312 19.0312 9.80729 18.25 9.35938 17.6875C8.92188 17.125 8.35417 16.8542 7.65625 16.875ZM25.6562 33H21.375V19.4375H19.5312V31.8125H15.3438V4.84375H19.5312V15.8438H21.375V4.3125H25.6562V33ZM54.5938 21.625H44V26.3438H39.4375V21.625H28.375V18.0938H54.5938V21.625ZM51.7188 32.5312H31.4062V23.875H35.9375V28.9062H51.7188V32.5312ZM41.4688 4.8125C43.5417 4.82292 45.3646 5.07292 46.9375 5.5625C48.5104 6.05208 49.7292 6.75 50.5938 7.65625C51.4688 8.5625 51.9062 9.61458 51.9062 10.8125C51.9062 12.0208 51.474 13.0781 50.6094 13.9844C49.7448 14.8802 48.5208 15.5729 46.9375 16.0625C45.3646 16.5417 43.5417 16.7812 41.4688 16.7812C39.3958 16.7812 37.5677 16.5417 35.9844 16.0625C34.401 15.5729 33.1719 14.8802 32.2969 13.9844C31.4323 13.0781 31 12.0208 31 10.8125C31 9.61458 31.4323 8.5625 32.2969 7.65625C33.1719 6.75 34.401 6.05208 35.9844 5.5625C37.5677 5.07292 39.3958 4.82292 41.4688 4.8125ZM41.4688 8.34375C39.7083 8.34375 38.3333 8.55208 37.3438 8.96875C36.3542 9.38542 35.8646 10 35.875 10.8125C35.8646 11.5938 36.3542 12.1927 37.3438 12.6094C38.3333 13.0156 39.7083 13.2188 41.4688 13.2188C43.2292 13.2188 44.599 13.0156 45.5781 12.6094C46.5677 12.1927 47.0625 11.5938 47.0625 10.8125C47.0625 10 46.5729 9.38542 45.5938 8.96875C44.6146 8.55208 43.2396 8.34375 41.4688 8.34375ZM80.9375 33H76.6875V18.8125H74.375V31.625H70.2812V4.75H74.375V15.25H76.6875V4.3125H80.9375V33ZM67.4688 11.1875H61.3125V22.9219C62.6771 22.901 63.9479 22.8438 65.125 22.75C66.3021 22.6458 67.5 22.4896 68.7188 22.2812L69.0312 25.9062C67.4062 26.2188 65.8177 26.4271 64.2656 26.5312C62.7135 26.6354 60.9062 26.6875 58.8438 26.6875H56.7812V7.59375H67.4688V11.1875ZM107.531 9.34375C107.531 10.9792 107.51 12.4115 107.469 13.6406C107.438 14.8594 107.333 16.2812 107.156 17.9062C106.99 19.5312 106.729 21.3021 106.375 23.2188L101.812 22.75C102.292 20.4271 102.604 18.3229 102.75 16.4375C102.906 14.5521 103 12.4792 103.031 10.2188H86.4062V6.65625H107.531V9.34375ZM109.875 29.6562H83.7188V26.0312H92.8125V16.2812H97.2812V26.0312H109.875V29.6562ZM137.5 21.6875H111.375V18.125H122.156V14.5312H126.656V18.125H137.5V21.6875ZM126.688 5.625C126.688 6.75 127.01 7.80729 127.656 8.79688C128.312 9.77604 129.349 10.6198 130.766 11.3281C132.182 12.0365 133.99 12.5208 136.188 12.7812L134.469 16.2812C132.042 15.9375 129.974 15.3021 128.266 14.375C126.568 13.4479 125.26 12.2865 124.344 10.8906C123.417 12.276 122.099 13.4375 120.391 14.375C118.693 15.3021 116.646 15.9375 114.25 16.2812L112.656 12.7812C114.802 12.5208 116.578 12.026 117.984 11.2969C119.401 10.5677 120.438 9.70833 121.094 8.71875C121.76 7.72917 122.094 6.69792 122.094 5.625V4.8125H126.688V5.625ZM134.375 33H129.875V26.9375H114.281V23.4688H134.375V33ZM155.156 8.25C155.156 9.73958 155.12 11.125 155.047 12.4062C154.974 13.6875 154.802 15.0938 154.531 16.625L150.125 16.2188C150.479 14.2188 150.688 12.1458 150.75 10H140.25V6.34375H155.156V8.25ZM148.094 18.3594C151.271 18.2031 154 17.9583 156.281 17.625L156.5 20.8438C153.865 21.3438 151.104 21.6719 148.219 21.8281C145.344 21.9844 142.26 22.0625 138.969 22.0625L138.594 18.5312C140.74 18.5312 142.417 18.5208 143.625 18.5V13.0625H148.094V18.3594ZM162.312 12.875H165.562V16.5938H162.312V25.75H157.688V4.3125H162.312V12.875ZM163.188 32.5312H142.719V23.8438H147.25V28.9375H163.188V32.5312ZM182.875 7.78125V8.125C182.854 9.48958 182.802 10.7083 182.719 11.7812C182.635 12.8438 182.458 14 182.188 15.25L177.812 14.9062C178.125 13.2083 178.312 11.375 178.375 9.40625H167.906V5.8125H182.875V7.78125ZM175.75 17.0312C178.75 16.9271 181.479 16.7292 183.938 16.4375L184.156 19.5625C181.458 20.0312 178.641 20.3542 175.703 20.5312C172.766 20.6979 169.74 20.7812 166.625 20.7812L166.25 17.1875C168.417 17.1875 170.094 17.1771 171.281 17.1562V12.2812H175.75V17.0312ZM189.969 11.1562H193.25V14.8438H189.969V21.6875H185.344V4.3125H189.969V11.1562ZM180.062 22C182.115 22 183.901 22.2188 185.422 22.6562C186.943 23.0938 188.109 23.724 188.922 24.5469C189.745 25.3594 190.156 26.3125 190.156 27.4062C190.156 28.5625 189.75 29.5521 188.938 30.375C188.125 31.2083 186.958 31.8438 185.438 32.2812C183.917 32.7188 182.125 32.9375 180.062 32.9375C177.99 32.9375 176.193 32.7188 174.672 32.2812C173.151 31.8438 171.979 31.2083 171.156 30.375C170.344 29.5521 169.938 28.5625 169.938 27.4062C169.938 26.3125 170.349 25.3594 171.172 24.5469C171.995 23.724 173.167 23.0938 174.688 22.6562C176.219 22.2188 178.01 22 180.062 22ZM180.062 25.4688C178.271 25.4583 176.901 25.6198 175.953 25.9531C175.005 26.276 174.542 26.7604 174.562 27.4062C174.552 28.1354 175 28.6615 175.906 28.9844C176.823 29.3073 178.208 29.4583 180.062 29.4375C181.906 29.4583 183.276 29.3125 184.172 29C185.068 28.6771 185.521 28.1458 185.531 27.4062C185.51 26.7604 185.036 26.276 184.109 25.9531C183.193 25.6198 181.844 25.4583 180.062 25.4688ZM195.969 21.375C195.969 18.5417 196.396 15.8906 197.25 13.4219C198.104 10.9531 199.323 8.61458 200.906 6.40625H206C205.24 7.48958 204.51 8.85417 203.812 10.5C203.125 12.1458 202.562 13.9271 202.125 15.8438C201.688 17.75 201.469 19.5938 201.469 21.375C201.469 23.1562 201.688 25.0052 202.125 26.9219C202.562 28.8281 203.125 30.6042 203.812 32.25C204.51 33.9062 205.24 35.2812 206 36.375H200.906C199.312 34.1458 198.089 31.7969 197.234 29.3281C196.391 26.849 195.969 24.1979 195.969 21.375ZM223.25 10.1875H207.438V6.65625H213.312V4.09375H217.812V6.65625H223.25V10.1875ZM215.5 10.8125C216.812 10.8125 217.99 11.0365 219.031 11.4844C220.073 11.9219 220.891 12.5365 221.484 13.3281C222.089 14.1198 222.396 15.0208 222.406 16.0312C222.396 17.0521 222.094 17.9583 221.5 18.75C220.906 19.5417 220.083 20.1562 219.031 20.5938C217.99 21.0312 216.812 21.25 215.5 21.25C214.188 21.25 213.016 21.0312 211.984 20.5938C210.964 20.1562 210.161 19.5469 209.578 18.7656C209.005 17.974 208.719 17.0625 208.719 16.0312C208.719 15.0208 209.005 14.1198 209.578 13.3281C210.161 12.5365 210.964 11.9219 211.984 11.4844C213.016 11.0365 214.188 10.8125 215.5 10.8125ZM215.5 14.1562C214.698 14.1562 214.062 14.3177 213.594 14.6406C213.135 14.9531 212.906 15.4167 212.906 16.0312C212.906 16.6771 213.135 17.1719 213.594 17.5156C214.062 17.8594 214.698 18.0312 215.5 18.0312C216.323 18.0312 216.979 17.8594 217.469 17.5156C217.969 17.1615 218.219 16.6667 218.219 16.0312C218.219 15.4271 217.969 14.9635 217.469 14.6406C216.979 14.3177 216.323 14.1562 215.5 14.1562ZM231.625 21.4375H227.156V19.5H223.594V15.9375H227.156V13.8438H223.688V10.25H227.156V4.3125H231.625V21.4375ZM216.594 24.3125H227.156V22.4688H231.625V32.6875H212.094V22.4688H216.594V24.3125ZM227.156 29.25V27.625H216.594V29.25H227.156ZM244.875 21.375C244.875 24.1979 244.448 26.849 243.594 29.3281C242.75 31.7969 241.531 34.1458 239.938 36.375H234.844C235.604 35.2812 236.328 33.9062 237.016 32.25C237.714 30.6042 238.281 28.8281 238.719 26.9219C239.156 25.0052 239.375 23.1562 239.375 21.375C239.375 19.5938 239.156 17.75 238.719 15.8438C238.281 13.9271 237.714 12.1458 237.016 10.5C236.328 8.85417 235.604 7.48958 234.844 6.40625H239.938C241.521 8.61458 242.74 10.9531 243.594 13.4219C244.448 15.8906 244.875 18.5417 244.875 21.375Z" fill="#333"/>
<path d="M4.3 48.576C5.128 48.576 5.728 47.892 5.728 46.932C5.728 45.996 5.128 45.312 4.3 45.312C3.46 45.312 2.872 45.996 2.872 46.932C2.872 47.892 3.46 48.576 4.3 48.576ZM4.3 44.484C5.632 44.484 6.604 45.492 6.604 46.932C6.604 48.396 5.632 49.392 4.3 49.392C2.968 49.392 1.996 48.396 1.996 46.932C1.996 45.492 2.968 44.484 4.3 44.484ZM4.78 41.436V42.96H6.964V43.764H1.624V42.96H3.808V41.436H4.78ZM9.808 41.112H10.756V51.876H9.808V46.464H8.428V51.36H7.504V41.364H8.428V45.66H9.808V41.112ZM17.5351 42.192C15.8911 42.192 14.7991 42.708 14.7991 43.56C14.7991 44.4 15.8911 44.916 17.5351 44.916C19.1911 44.916 20.2711 44.4 20.2711 43.56C20.2711 42.708 19.1911 42.192 17.5351 42.192ZM17.5351 45.72C15.2551 45.72 13.7671 44.892 13.7671 43.56C13.7671 42.228 15.2551 41.4 17.5351 41.4C19.8151 41.4 21.3031 42.228 21.3031 43.56C21.3031 44.892 19.8151 45.72 17.5351 45.72ZM14.8951 48.504V50.832H21.3511V51.648H13.9111V48.504H14.8951ZM12.6631 46.584H22.4191V47.388H18.1231V49.56H17.1271V47.388H12.6631V46.584ZM25.0701 43.236V48.42C26.5101 48.408 27.5301 48.348 28.7061 48.096L28.7901 48.912C27.5061 49.188 26.4141 49.236 24.8061 49.236H24.0981V42.432H28.1061V43.236H25.0701ZM31.9101 41.124H32.8581V51.888H31.9101V46.248H30.3861V51.348H29.4621V41.364H30.3861V45.444H31.9101V41.124ZM42.3492 43.272V43.008H35.7852V42.204H43.3332V43.272C43.3332 44.604 43.3332 46.08 42.9252 48.252L41.9412 48.144C42.3492 46.08 42.3492 44.568 42.3492 43.272ZM39.5292 49.572H44.4972V50.376H34.7652V49.572H38.5452V45.72H39.5292V49.572ZM54.9363 44.664L54.5643 45.456C52.9203 45.18 51.3363 44.328 50.6523 43.092C49.9803 44.328 48.3963 45.18 46.7523 45.456L46.3803 44.664C48.2883 44.4 50.1483 43.2 50.1483 41.772V41.292H51.1562V41.772C51.1562 43.2 53.0163 44.4 54.9363 44.664ZM46.8723 49.176V48.372H54.3243V51.9H53.3403V49.176H46.8723ZM51.1443 46.524H55.5603V47.328H45.7923V46.524H50.1603V44.88H51.1443V46.524ZM62.4833 45.72L61.5113 45.612C61.7633 44.376 61.7993 43.452 61.7993 42.768H57.4073V41.964H62.7593V42.528C62.7593 43.236 62.7593 44.304 62.4833 45.72ZM63.5033 46.368L63.5753 47.088C61.3433 47.46 58.7633 47.52 56.8553 47.52L56.7593 46.716C57.4433 46.716 58.2233 46.704 59.0393 46.692V44.364H60.0113V46.656C61.1873 46.608 62.4113 46.512 63.5033 46.368ZM59.3873 48.492V50.844H65.5553V51.648H58.4033V48.492H59.3873ZM65.2073 44.628H66.7433V45.444H65.2073V49.236H64.2233V41.124H65.2073V44.628ZM73.5104 45.3L72.5504 45.216C72.8024 44.076 72.8264 43.236 72.8264 42.588H68.4584V41.796H73.7864V42.372C73.7864 43.056 73.7864 44.028 73.5104 45.3ZM74.5424 45.972L74.6144 46.692C72.3824 47.04 69.8384 47.1 67.9064 47.1L67.7984 46.284C68.4824 46.284 69.2744 46.284 70.0784 46.26V44.136H71.0504V46.236C72.2264 46.188 73.4384 46.104 74.5424 45.972ZM72.7784 51.084C74.3744 51.084 75.3584 50.652 75.3584 49.908C75.3584 49.176 74.3744 48.744 72.7784 48.744C71.1824 48.744 70.1984 49.176 70.1984 49.908C70.1984 50.652 71.1824 51.084 72.7784 51.084ZM72.7784 47.976C74.9864 47.976 76.3544 48.684 76.3544 49.908C76.3544 51.156 74.9864 51.864 72.7784 51.864C70.5704 51.864 69.2024 51.156 69.2024 49.908C69.2024 48.684 70.5704 47.976 72.7784 47.976ZM76.2464 44.064H77.7704V44.88H76.2464V47.832H75.2624V41.112H76.2464V44.064ZM87.7204 46.932H90.1684V44.34H87.6844C87.7804 44.76 87.8404 45.216 87.8404 45.708C87.8404 46.152 87.7924 46.56 87.7204 46.932ZM85.1644 48.588C86.1844 48.588 86.9164 47.46 86.9164 45.708C86.9164 43.968 86.1844 42.84 85.1644 42.84C84.1324 42.84 83.4124 43.968 83.4124 45.708C83.4124 47.46 84.1324 48.588 85.1644 48.588ZM90.1684 41.124H91.1524V51.912H90.1684V47.736H87.4804C87.0364 48.828 86.1964 49.464 85.1644 49.464C83.5924 49.464 82.4764 48 82.4764 45.708C82.4764 43.416 83.5924 41.952 85.1644 41.952C86.1604 41.952 86.9524 42.528 87.4084 43.536H90.1684V41.124ZM100.092 44.856V47.544H99.1555V41.328H100.092V44.052H101.46V41.124H102.408V47.94H101.46V44.856H100.092ZM98.7235 42.408L98.7355 43.188H93.2635V42.408H95.5195V41.208H96.4915V42.408H98.7235ZM94.5955 45.588C94.5955 46.26 95.1595 46.704 96.0115 46.704C96.8515 46.704 97.4275 46.26 97.4275 45.588C97.4275 44.928 96.8515 44.484 96.0115 44.484C95.1595 44.484 94.5955 44.928 94.5955 45.588ZM98.3035 45.588C98.3035 46.716 97.3675 47.436 96.0115 47.436C94.6555 47.436 93.7075 46.716 93.7075 45.588C93.7075 44.484 94.6555 43.752 96.0115 43.752C97.3675 43.752 98.3035 44.484 98.3035 45.588ZM98.8675 51.12C100.5 51.12 101.484 50.712 101.484 50.004C101.484 49.284 100.5 48.876 98.8675 48.876C97.2235 48.876 96.2395 49.284 96.2395 50.004C96.2395 50.712 97.2235 51.12 98.8675 51.12ZM98.8675 48.12C101.112 48.12 102.468 48.792 102.468 50.004C102.468 51.204 101.112 51.876 98.8675 51.876C96.6235 51.876 95.2675 51.204 95.2675 50.004C95.2675 48.792 96.6235 48.12 98.8675 48.12ZM107.975 42.06V43.992C107.975 45.888 109.199 47.844 110.711 48.6L110.099 49.38C108.959 48.768 107.987 47.508 107.495 46.032C107.027 47.604 106.031 48.948 104.819 49.596L104.231 48.804C105.779 48.012 107.003 45.948 107.003 43.992V42.06H107.975ZM114.419 45.492V46.308H112.643V51.888H111.659V41.136H112.643V45.492H114.419ZM120.067 47.0625V51H119.061V42.2727H120.067V45.4773H120.152C120.305 45.1392 120.536 44.8707 120.842 44.6719C121.152 44.4702 121.564 44.3693 122.078 44.3693C122.524 44.3693 122.915 44.4588 123.25 44.6378C123.585 44.8139 123.845 45.0852 124.03 45.4517C124.217 45.8153 124.311 46.2784 124.311 46.8409V51H123.305V46.9091C123.305 46.3892 123.17 45.9872 122.901 45.7031C122.634 45.4162 122.263 45.2727 121.788 45.2727C121.459 45.2727 121.163 45.3423 120.902 45.4815C120.643 45.6207 120.439 45.8239 120.288 46.0909C120.141 46.358 120.067 46.6818 120.067 47.0625ZM128.077 51.1534C127.662 51.1534 127.286 51.0753 126.948 50.919C126.61 50.7599 126.341 50.5312 126.142 50.233C125.944 49.9318 125.844 49.5682 125.844 49.142C125.844 48.767 125.918 48.4631 126.066 48.2301C126.213 47.9943 126.411 47.8097 126.658 47.6761C126.905 47.5426 127.178 47.4432 127.476 47.3778C127.777 47.3097 128.08 47.2557 128.384 47.2159C128.782 47.1648 129.104 47.1264 129.351 47.1009C129.601 47.0724 129.783 47.0256 129.897 46.9602C130.013 46.8949 130.071 46.7812 130.071 46.6193V46.5852C130.071 46.1648 129.956 45.8381 129.726 45.6051C129.499 45.3722 129.154 45.2557 128.691 45.2557C128.211 45.2557 127.834 45.3608 127.561 45.571C127.289 45.7812 127.097 46.0057 126.986 46.2443L126.032 45.9034C126.202 45.5057 126.429 45.196 126.713 44.9744C127 44.75 127.313 44.5937 127.651 44.5057C127.992 44.4148 128.327 44.3693 128.657 44.3693C128.867 44.3693 129.108 44.3949 129.381 44.446C129.657 44.4943 129.922 44.5952 130.178 44.7486C130.436 44.902 130.651 45.1335 130.821 45.4432C130.992 45.7528 131.077 46.1676 131.077 46.6875V51H130.071V50.1136H130.02C129.952 50.2557 129.838 50.4077 129.679 50.5696C129.52 50.7315 129.309 50.8693 129.044 50.983C128.78 51.0966 128.458 51.1534 128.077 51.1534ZM128.23 50.25C128.628 50.25 128.963 50.1719 129.236 50.0156C129.512 49.8594 129.719 49.6577 129.858 49.4105C130 49.1634 130.071 48.9034 130.071 48.6307V47.7102C130.029 47.7614 129.935 47.8082 129.79 47.8509C129.648 47.8906 129.483 47.9261 129.296 47.9574C129.111 47.9858 128.931 48.0114 128.755 48.0341C128.581 48.054 128.441 48.071 128.333 48.0852C128.071 48.1193 127.827 48.1747 127.6 48.2514C127.375 48.3253 127.194 48.4375 127.054 48.5881C126.918 48.7358 126.85 48.9375 126.85 49.1932C126.85 49.5426 126.979 49.8068 127.238 49.9858C127.499 50.1619 127.83 50.25 128.23 50.25ZM133.918 47.0625V51H132.913V44.4545H133.884V45.4773H133.969C134.123 45.1449 134.356 44.8778 134.668 44.6761C134.981 44.4716 135.384 44.3693 135.879 44.3693C136.322 44.3693 136.71 44.4602 137.042 44.642C137.374 44.821 137.633 45.0938 137.817 45.4602C138.002 45.8239 138.094 46.2841 138.094 46.8409V51H137.089V46.9091C137.089 46.3949 136.955 45.9943 136.688 45.7074C136.421 45.4176 136.055 45.2727 135.589 45.2727C135.268 45.2727 134.981 45.3423 134.728 45.4815C134.478 45.6207 134.281 45.8239 134.136 46.0909C133.991 46.358 133.918 46.6818 133.918 47.0625ZM140.069 51V42.2727H141.074V45.4943H141.159C141.233 45.3807 141.336 45.2358 141.466 45.0597C141.6 44.8807 141.79 44.7216 142.037 44.5824C142.287 44.4403 142.625 44.3693 143.051 44.3693C143.603 44.3693 144.088 44.5071 144.509 44.7827C144.929 45.0582 145.257 45.4489 145.493 45.9545C145.729 46.4602 145.847 47.0568 145.847 47.7443C145.847 48.4375 145.729 49.0384 145.493 49.5469C145.257 50.0526 144.931 50.4446 144.513 50.723C144.096 50.9986 143.614 51.1364 143.069 51.1364C142.648 51.1364 142.311 51.0668 142.059 50.9276C141.806 50.7855 141.611 50.625 141.475 50.446C141.338 50.2642 141.233 50.1136 141.159 49.9943H141.04V51H140.069ZM141.057 47.7273C141.057 48.2216 141.13 48.6577 141.275 49.0355C141.419 49.4105 141.631 49.7045 141.909 49.9176C142.188 50.1278 142.529 50.233 142.932 50.233C143.353 50.233 143.703 50.1222 143.985 49.9006C144.269 49.6761 144.482 49.375 144.624 48.9972C144.769 48.6165 144.841 48.1932 144.841 47.7273C144.841 47.267 144.77 46.8523 144.628 46.483C144.489 46.1108 144.277 45.8168 143.993 45.6009C143.712 45.3821 143.358 45.2727 142.932 45.2727C142.523 45.2727 142.179 45.3764 141.901 45.5838C141.623 45.7884 141.412 46.0753 141.27 46.4446C141.128 46.8111 141.057 47.2386 141.057 47.7273ZM151.51 48.3239V44.4545H152.516V51H151.51V49.892H151.442C151.289 50.2244 151.05 50.5071 150.726 50.7401C150.402 50.9702 149.993 51.0852 149.499 51.0852C149.09 51.0852 148.726 50.9957 148.408 50.8168C148.09 50.6349 147.84 50.3622 147.658 49.9986C147.476 49.6321 147.385 49.1705 147.385 48.6136V44.4545H148.391V48.5455C148.391 49.0227 148.525 49.4034 148.792 49.6875C149.061 49.9716 149.405 50.1136 149.823 50.1136C150.073 50.1136 150.327 50.0497 150.586 49.9219C150.847 49.794 151.066 49.598 151.242 49.3338C151.421 49.0696 151.51 48.733 151.51 48.3239ZM158.994 45.9205L158.091 46.1761C158.034 46.0256 157.95 45.8793 157.839 45.7372C157.732 45.5923 157.584 45.473 157.396 45.3793C157.209 45.2855 156.969 45.2386 156.676 45.2386C156.276 45.2386 155.942 45.331 155.675 45.5156C155.411 45.6974 155.278 45.929 155.278 46.2102C155.278 46.4602 155.369 46.6577 155.551 46.8026C155.733 46.9474 156.017 47.0682 156.403 47.1648L157.375 47.4034C157.96 47.5455 158.396 47.7628 158.683 48.0554C158.97 48.3452 159.114 48.7187 159.114 49.1761C159.114 49.5511 159.006 49.8864 158.79 50.1818C158.577 50.4773 158.278 50.7102 157.895 50.8807C157.511 51.0511 157.065 51.1364 156.557 51.1364C155.889 51.1364 155.337 50.9915 154.899 50.7017C154.462 50.4119 154.185 49.9886 154.068 49.4318L155.023 49.1932C155.114 49.5455 155.286 49.8097 155.538 49.9858C155.794 50.1619 156.128 50.25 156.54 50.25C157.009 50.25 157.381 50.1506 157.656 49.9517C157.935 49.75 158.074 49.5085 158.074 49.2273C158.074 49 157.994 48.8097 157.835 48.6562C157.676 48.5 157.432 48.3835 157.102 48.3068L156.011 48.0511C155.412 47.9091 154.972 47.6889 154.69 47.3906C154.412 47.0895 154.273 46.7131 154.273 46.2614C154.273 45.892 154.376 45.5653 154.584 45.2812C154.794 44.9972 155.08 44.7741 155.44 44.6122C155.804 44.4503 156.216 44.3693 156.676 44.3693C157.324 44.3693 157.832 44.5114 158.202 44.7955C158.574 45.0795 158.838 45.4545 158.994 45.9205ZM161.36 51.0682C161.15 51.0682 160.97 50.9929 160.819 50.8423C160.669 50.6918 160.593 50.5114 160.593 50.3011C160.593 50.0909 160.669 49.9105 160.819 49.7599C160.97 49.6094 161.15 49.5341 161.36 49.5341C161.571 49.5341 161.751 49.6094 161.902 49.7599C162.052 49.9105 162.127 50.0909 162.127 50.3011C162.127 50.4403 162.092 50.5682 162.021 50.6847C161.953 50.8011 161.86 50.8949 161.744 50.9659C161.63 51.0341 161.502 51.0682 161.36 51.0682ZM166.591 51.1364C165.978 51.1364 165.449 50.9915 165.006 50.7017C164.563 50.4119 164.222 50.0128 163.983 49.5043C163.745 48.9957 163.625 48.4148 163.625 47.7614C163.625 47.0966 163.748 46.5099 163.992 46.0014C164.239 45.4901 164.583 45.0909 165.023 44.804C165.466 44.5142 165.983 44.3693 166.574 44.3693C167.034 44.3693 167.449 44.4545 167.819 44.625C168.188 44.7955 168.49 45.0341 168.726 45.3409C168.962 45.6477 169.108 46.0057 169.165 46.4148H168.159C168.083 46.1165 167.912 45.8523 167.648 45.6222C167.387 45.3892 167.034 45.2727 166.591 45.2727C166.199 45.2727 165.855 45.375 165.56 45.5795C165.267 45.7812 165.039 46.0668 164.874 46.4361C164.712 46.8026 164.631 47.233 164.631 47.7273C164.631 48.233 164.711 48.6733 164.87 49.0483C165.032 49.4233 165.259 49.7145 165.551 49.9219C165.847 50.1293 166.194 50.233 166.591 50.233C166.853 50.233 167.09 50.1875 167.303 50.0966C167.516 50.0057 167.696 49.875 167.844 49.7045C167.992 49.5341 168.097 49.3295 168.159 49.0909H169.165C169.108 49.4773 168.968 49.8253 168.743 50.1349C168.522 50.4418 168.228 50.6861 167.861 50.8679C167.498 51.0469 167.074 51.1364 166.591 51.1364ZM173.294 51.1364C172.703 51.1364 172.185 50.9957 171.739 50.7145C171.296 50.4332 170.949 50.0398 170.699 49.5341C170.452 49.0284 170.328 48.4375 170.328 47.7614C170.328 47.0795 170.452 46.4844 170.699 45.9759C170.949 45.4673 171.296 45.0724 171.739 44.7912C172.185 44.5099 172.703 44.3693 173.294 44.3693C173.885 44.3693 174.402 44.5099 174.846 44.7912C175.292 45.0724 175.638 45.4673 175.885 45.9759C176.135 46.4844 176.26 47.0795 176.26 47.7614C176.26 48.4375 176.135 49.0284 175.885 49.5341C175.638 50.0398 175.292 50.4332 174.846 50.7145C174.402 50.9957 173.885 51.1364 173.294 51.1364ZM173.294 50.233C173.743 50.233 174.113 50.1179 174.402 49.8878C174.692 49.6577 174.907 49.3551 175.046 48.9801C175.185 48.6051 175.255 48.1989 175.255 47.7614C175.255 47.3239 175.185 46.9162 175.046 46.5384C174.907 46.1605 174.692 45.8551 174.402 45.6222C174.113 45.3892 173.743 45.2727 173.294 45.2727C172.846 45.2727 172.476 45.3892 172.186 45.6222C171.897 45.8551 171.682 46.1605 171.543 46.5384C171.404 46.9162 171.334 47.3239 171.334 47.7614C171.334 48.1989 171.404 48.6051 171.543 48.9801C171.682 49.3551 171.897 49.6577 172.186 49.8878C172.476 50.1179 172.846 50.233 173.294 50.233ZM178.528 51.0682C178.318 51.0682 178.138 50.9929 177.987 50.8423C177.837 50.6918 177.761 50.5114 177.761 50.3011C177.761 50.0909 177.837 49.9105 177.987 49.7599C178.138 49.6094 178.318 49.5341 178.528 49.5341C178.739 49.5341 178.919 49.6094 179.07 49.7599C179.22 49.9105 179.295 50.0909 179.295 50.3011C179.295 50.4403 179.26 50.5682 179.189 50.6847C179.121 50.8011 179.028 50.8949 178.912 50.9659C178.798 51.0341 178.67 51.0682 178.528 51.0682ZM182.038 48.6136L182.021 47.3693H182.225L185.089 44.4545H186.333L183.282 47.5398H183.197L182.038 48.6136ZM181.1 51V42.2727H182.106V51H181.1ZM185.259 51L182.702 47.7614L183.418 47.0625L186.538 51H185.259ZM187.627 51V44.4545H188.599V45.4432H188.667C188.787 45.1193 189.002 44.8565 189.315 44.6548C189.627 44.4531 189.98 44.3523 190.372 44.3523C190.446 44.3523 190.538 44.3537 190.649 44.3565C190.76 44.3594 190.843 44.3636 190.9 44.3693V45.392C190.866 45.3835 190.788 45.3707 190.666 45.3537C190.547 45.3338 190.42 45.3239 190.287 45.3239C189.968 45.3239 189.684 45.3906 189.434 45.5241C189.187 45.6548 188.991 45.8366 188.846 46.0696C188.704 46.2997 188.633 46.5625 188.633 46.858V51H187.627Z" fill="#333"/>
</svg>
